<svg fill="none" xmlns="http://www.w3.org/2000/svg" viewBox="0 0 120 120">
  <path
    d="M2.2 19.5C2.2 10 9.9 2.2 19.5 2.2h81c9.6 0 17.3 7.7 17.3 17.3v81c0 9.6-7.7 17.3-17.3 17.3h-81c-9.6 0-17.3-7.7-17.3-17.3z"
    fill="#E6DAD0" />
  <path
    d="M0 100.5v-81C0 8.7 8.7 0 19.5 0v2.2C10 2.2 2.2 9.9 2.2 19.5V101c.2 9.3 7.6 16.7 16.9 17h81.8c9.4-.3 17-8 17-17.4v-81c0-9.6-7.8-17.3-17.4-17.3V0C111.3 0 120 8.7 120 19.5v81c0 10.8-8.7 19.5-19.5 19.5h-81A19.5 19.5 0 0 1 0 100.5M100.5 0v2.2h-81V0z"
    fill="#3C3A2D" />
  <path
    d="M5.9 20.3c0-8 6.5-14.4 14.4-14.4h79.4c8 0 14.4 6.5 14.4 14.4v79.4c0 8-6.5 14.4-14.4 14.4H20.3c-8 0-14.4-6.5-14.4-14.4z"
    fill="#BBAC8A" />
  <path
    d="m91.5 10.6 16.8 18v63.9l-16 17.4H30.4L11.2 92.5v-64l19.2-17.9zM13.3 29.5v62l18 16.2h60l14.8-16V29.3L90.6 12.8H31.2z"
    fill="#D2C3A3" />
  <path
    d="m59.1 91.8-8.5-7.7 8.5-7.8 8.2 8zm9.5-20-4-8c-2.2 2.2-6.1 1.6-6.1-.7 0-1.8 2-2.7 3-3l5.8-2.2C72 56 76 50.5 76 46a10 10 0 0 0-1.4-5.8c-1-3-5.3-8.4-14.7-8.4S45.4 36.1 44 38.3l6.2 7.7c2-1 6.4-3 8.5-3 2.6 0 4.6.7 5.2 3 .5 1.8-2 3.1-3.2 3.5l-9.5 4.9c-1.4.5-4.3 3-4.3 8.7 0 7 7.9 10.6 12.8 10.6 4 0 7.5-1.2 8.8-1.9"
    fill="#fff" />
</svg>