<svg width="166" height="166" viewBox="0 0 166 166" fill="none" xmlns="http://www.w3.org/2000/svg">
<rect x="1.5" y="1.5" width="163" height="163" rx="25.5" fill="#E6DAD0" stroke="#3C3A2D" stroke-width="3"/>
<rect x="8.1377" y="8.13757" width="149.725" height="149.725" rx="20" fill="#BBAC8A"/>
<path d="M16.9451 40.1297V127.34L42.6331 150.523L127.037 150.523L148.321 127.34V40.1297L125.942 16.2111L42.6331 16.2111L16.9451 40.1297Z" stroke="#D2C3A3" stroke-width="3"/>
<path d="M81.8044 127L70.0454 116.29L81.8044 105.581L93.1111 116.737L81.8044 127Z" fill="white"/>
<path d="M94.9202 99.3334L89.493 88.1774C86.3271 91.3011 80.8998 90.4086 80.8998 87.285C80.8998 84.7861 83.6134 83.5663 84.9703 83.2688L93.1111 80.1452C99.4429 77.4677 105 69.8817 105 63.6344C105 60.0645 104.418 57.8333 103.061 55.6022C101.704 51.4373 95.7343 44 82.7089 44C69.6836 44 62.8091 49.9498 61 52.9247L69.5931 63.6344C72.3067 62.2604 78.4576 59.5123 81.3521 59.5123C84.9703 59.5123 87.7401 60.5108 88.5884 63.6344C89.2671 66.1334 85.8561 67.9481 84.0657 68.543L70.9499 75.2366C68.9901 75.9803 65.0704 79.4312 65.0704 87.285C65.0704 97.1022 75.9249 102.011 82.7089 102.011C88.1362 102.011 93.1111 100.226 94.9202 99.3334Z" fill="white"/>
</svg>
