<svg viewBox="0 0 33 33" fill="none" xmlns="http://www.w3.org/2000/svg">
  <path
    d="M16.1228 4.39001C16.462 4.39001 16.7856 4.48398 17.0867 4.65564C17.4234 4.84766 17.6668 5.13634 17.8171 5.49646L20.2 11.1508L26.3669 11.6918L26.3806 11.6927L26.3943 11.6947C26.7701 11.7484 27.1145 11.8766 27.3855 12.1136C27.633 12.3302 27.8118 12.6038 27.9265 12.9193C28.0477 13.2527 28.0706 13.5985 27.9958 13.9457C27.9882 13.9811 27.9783 14.0158 27.9685 14.0502C28.0517 14.3428 28.0608 14.6437 27.9958 14.9457C27.9154 15.3195 27.7131 15.6376 27.4226 15.8969L27.4167 15.9017L22.9382 19.7699L24.1433 24.9437V24.9447C24.2143 25.2525 24.2114 25.5577 24.1208 25.848L24.1433 25.9437V25.9447C24.2314 26.3265 24.208 26.705 24.0417 27.0551C23.8978 27.3579 23.6929 27.6149 23.4294 27.8187C23.149 28.0356 22.8229 28.157 22.4666 28.1879C22.0848 28.221 21.7244 28.1233 21.3982 27.9174L16.1228 24.7406L10.8484 27.9183L10.8474 27.9174C10.5217 28.1219 10.1626 28.2195 9.78198 28.1879C9.42436 28.1581 9.09712 28.0363 8.81616 27.8177C8.5537 27.6136 8.34876 27.3577 8.20483 27.056C8.03794 26.7061 8.01442 26.3268 8.10229 25.9447L8.10327 25.9437L8.12476 25.848C8.03432 25.5579 8.03153 25.2524 8.10229 24.9447L8.10327 24.9437L9.30737 19.7699L4.82983 15.9017L4.82202 15.8949C4.53321 15.6349 4.33202 15.3176 4.25171 14.9447C4.18649 14.6417 4.19547 14.3397 4.27905 14.0463C4.26958 14.0127 4.25914 13.9792 4.25171 13.9447C4.17711 13.5982 4.19985 13.253 4.32007 12.9203C4.43413 12.6046 4.61221 12.3308 4.86011 12.1136C5.13186 11.8757 5.47705 11.7476 5.85327 11.6947L5.86694 11.6927L5.87964 11.6918L12.0457 11.1508L14.4294 5.49646C14.5798 5.13636 14.8232 4.84766 15.1599 4.65564C15.4608 4.48408 15.7838 4.3901 16.1228 4.39001Z"
    fill="#75590A" stroke="#75590A" />
  <path
    d="M16.1232 23.1567L10.5899 26.49C10.3455 26.6456 10.0899 26.7122 9.82324 26.69C9.55657 26.6678 9.32324 26.5789 9.12324 26.4233C8.92324 26.2678 8.76769 26.0736 8.65657 25.8407C8.54546 25.6078 8.52324 25.3465 8.58991 25.0567L10.0566 18.7567L5.15657 14.5233C4.93435 14.3233 4.79569 14.0953 4.74057 13.8393C4.68546 13.5833 4.70191 13.3336 4.78991 13.09C4.87791 12.8465 5.01124 12.6465 5.18991 12.49C5.36857 12.3336 5.61302 12.2336 5.92324 12.19L12.3899 11.6233L14.8899 5.69001C15.001 5.42335 15.1735 5.22335 15.4072 5.09001C15.641 4.95668 15.8797 4.89001 16.1232 4.89001C16.3668 4.89001 16.6055 4.95668 16.8392 5.09001C17.073 5.22335 17.2455 5.42335 17.3566 5.69001L19.8566 11.6233L26.3232 12.19C26.6344 12.2345 26.8788 12.3345 27.0566 12.49C27.2344 12.6456 27.3677 12.8456 27.4566 13.09C27.5455 13.3345 27.5624 13.5847 27.5072 13.8407C27.4521 14.0967 27.313 14.3242 27.0899 14.5233L22.1899 18.7567L23.6566 25.0567C23.7232 25.3456 23.701 25.6069 23.5899 25.8407C23.4788 26.0745 23.3232 26.2687 23.1232 26.4233C22.9232 26.578 22.6899 26.6669 22.4232 26.69C22.1566 26.7131 21.901 26.6465 21.6566 26.49L16.1232 23.1567Z"
    fill="url(#paint0_linear_29_101)" />
  <defs>
    <linearGradient id="paint0_linear_29_101" x1="16.1238" y1="4.89001" x2="16.1238" y2="26.6945"
      gradientUnits="userSpaceOnUse">
      <stop stop-color="#F7DC2F" />
      <stop offset="1" stop-color="#EAB634" />
    </linearGradient>
  </defs>
</svg>